3.0Hz3min_grf.mot
version=1
nRows=22
nColumns 19
inDegrees=yes
endheader
time	1_ground_force_vx	1_ground_force_vy	1_ground_force_vz	1_ground_force_px	1_ground_force_py	1_ground_force_pz	1_ground_torque_x	1_ground_torque_y	1_ground_torque_z	2_ground_force_vx	2_ground_force_vy	2_ground_force_vz	2_ground_force_px	2_ground_force_py	2_ground_force_pz	2_ground_torque_x	2_ground_torque_y	2_ground_torque_z
            2.502500	            0.139447	            0.717550	            0.828157	           -0.233013	            0.005581	           -0.255695	           -0.017060	            0.009655	           -0.069270	           -4.675356	           60.974683	          -10.339444	           -0.236171	            0.005489	           -0.657984	           -0.018936	            0.246954	           -0.041876
            2.503000	            0.184574	            0.899005	            0.553681	           -0.233013	            0.005581	           -0.255695	           -0.080679	            0.074600	           -0.123280	           -4.399574	           62.448885	          -10.334307	           -0.235511	            0.005489	           -0.657164	           -0.009005	            0.127815	           -0.021151
            2.503500	            0.139740	            0.356626	            0.918323	           -0.233013	            0.005581	           -0.255695	           -0.058193	            0.027976	           -0.031480	           -5.103672	           62.814812	          -10.379622	           -0.235718	            0.005484	           -0.656160	           -0.012604	            0.155123	           -0.025633
            2.504000	            0.231069	           -0.183367	            0.732353	           -0.233013	            0.005581	           -0.255695	           -0.087694	            0.000518	           -0.083991	           -5.205244	           65.023424	          -10.137057	           -0.234894	            0.005493	           -0.657790	           -0.007809	            0.097555	           -0.015209
            2.504500	            0.092726	            0.538849	            0.460650	           -0.233013	            0.005581	           -0.255695	           -0.094987	            0.046257	            0.004324	           -5.350987	           66.495099	           -9.850172	           -0.234807	            0.005497	           -0.658882	           -0.009259	            0.115064	           -0.017045
            2.505000	            0.322022	            0.718962	            0.506710	           -0.233013	            0.005581	           -0.255695	           -0.059778	            0.093072	           -0.098584	           -5.640439	           68.885661	           -9.184517	           -0.236324	            0.005506	           -0.662813	           -0.011969	            0.146170	           -0.019489
            2.505500	            0.046802	            0.358771	            0.414135	           -0.233013	            0.005581	           -0.255695	           -0.074389	            0.083615	           -0.091505	           -6.062006	           68.883469	           -8.996625	           -0.234801	            0.005502	           -0.660199	           -0.020067	            0.228019	           -0.029781
            2.506000	            0.184184	            0.539260	            0.368711	           -0.233013	            0.005581	           -0.255695	            0.021290	            0.019072	           -0.104960	           -5.788114	           70.909287	           -8.754877	           -0.235415	            0.005501	           -0.660549	           -0.012561	            0.153885	           -0.019000
            2.506500	            0.414618	            0.717407	            0.873330	           -0.233013	            0.005581	           -0.255695	           -0.075772	            0.029065	           -0.245294	           -5.701479	           72.933240	           -8.184552	           -0.234994	            0.005504	           -0.660777	           -0.016897	            0.216147	           -0.024256
            2.507000	            0.783290	            4.498535	            1.943338	           -0.233013	            0.005581	           -0.255695	            0.158965	           -0.017787	           -0.023795	           -5.940257	           74.220436	           -7.898284	           -0.235483	            0.005499	           -0.659980	           -0.016620	            0.207663	           -0.022099
            2.507500	            1.563657	            6.298983	            2.499405	           -0.233013	            0.005581	           -0.255695	            0.115282	           -0.026016	           -0.140941	           -6.136859	           76.796999	           -7.654365	           -0.235513	            0.005504	           -0.661318	           -0.009461	            0.118395	           -0.011800
            2.508000	            2.848933	            7.738014	            3.281953	           -0.233013	            0.005581	           -0.255695	            0.287621	           -0.117556	           -0.143474	           -6.141929	           78.268178	           -7.085971	           -0.235178	            0.005502	           -0.660517	           -0.012288	            0.156590	           -0.014177
            2.508500	            3.768295	            8.995332	            4.385630	           -0.233013	            0.005581	           -0.255695	            0.502516	           -0.153544	           -0.217901	           -6.098402	           79.189081	           -7.082706	           -0.235056	            0.005491	           -0.657378	           -0.017866	            0.231998	           -0.020750
            2.509000	            4.640642	           10.434874	            5.031635	           -0.247040	            0.005810	           -0.309692	            0.003666	            0.008244	            0.003975	           -6.348294	           83.605284	           -6.362915	           -0.235131	            0.005511	           -0.663136	           -0.020865	            0.274792	           -0.020913
            2.509500	            4.960447	           13.320169	            4.813926	           -0.239953	            0.005789	           -0.304403	            0.020426	            0.054849	            0.019822	           -6.406257	           86.734138	           -5.929372	           -0.235643	            0.005512	           -0.663712	           -0.025660	            0.347408	           -0.023750
            2.510000	            5.234768	           15.484000	            4.684951	           -0.248361	            0.005804	           -0.308360	            0.007972	            0.023580	            0.007134	           -6.180381	           89.126728	           -5.310865	           -0.235412	            0.005508	           -0.662528	           -0.020266	            0.292249	           -0.017414
            2.510500	            5.507946	           20.172731	            4.291663	           -0.241624	            0.005795	           -0.305882	            0.013633	            0.049932	            0.010623	           -5.959156	           92.808365	           -4.687758	           -0.235548	            0.005513	           -0.664008	           -0.015576	            0.242574	           -0.012252
            2.511000	            5.508282	           22.695074	            4.623475	           -0.234102	            0.005812	           -0.309574	            0.013446	            0.055398	            0.011286	           -5.925414	           96.489994	           -4.252284	           -0.234849	            0.005521	           -0.665614	           -0.015316	            0.249413	           -0.010992
            2.511500	            6.699767	           27.561691	            4.824811	           -0.239555	            0.005790	           -0.304659	           -0.011971	           -0.049246	           -0.008621	           -5.705580	          100.540429	           -3.768647	           -0.235692	            0.005522	           -0.666589	           -0.014971	            0.263805	           -0.009888
            2.512000	            7.849881	           32.240366	            6.813868	           -0.241719	            0.005802	           -0.307547	            0.009785	            0.040188	            0.008494	           -5.622850	          103.668619	           -3.006667	           -0.235619	            0.005519	           -0.665813	           -0.012501	            0.230474	           -0.006684
            2.512500	            9.135329	           37.103068	            7.932094	           -0.241552	            0.005800	           -0.307104	            0.005296	            0.021509	            0.004598	           -5.538146	          106.244523	           -2.293587	           -0.235530	            0.005518	           -0.665329	           -0.017100	            0.328042	           -0.007082
            2.513000	           10.420485	           41.065229	            8.863032	           -0.239235	            0.005818	           -0.311224	            0.041141	            0.162131	            0.034992	           -5.228436	          111.398848	           -1.430623	           -0.235234	            0.005528	           -0.667880	           -0.015621	            0.332822	           -0.004274
